<svg width="500" height="500" viewBox="0 0 500 500" fill="none" xmlns="http://www.w3.org/2000/svg">
<path fill-rule="evenodd" clip-rule="evenodd" d="M31.8269 297.829C27.032 247.614 43.2184 197.76 76.8693 158.126C109.866 119.262 157.26 93.0085 209.85 84.0131V108.208C164.06 116.937 123.35 140.167 95.0194 173.536C65.348 208.483 51.3708 252.023 55.5286 295.566C59.6879 339.126 81.7391 379.96 117.732 409.883C150.842 437.408 193.482 453.789 238.417 456.257V226.021H262.227V468.489V480.393H250.322C195.758 480.393 143.007 461.857 102.511 428.192C61.9868 394.502 36.6202 348.029 31.8269 297.829Z" fill="#D35230"/>
<path fill-rule="evenodd" clip-rule="evenodd" d="M208.112 382.059C187.706 374.881 169.149 361.51 154.641 343.018C137.837 321.599 127.549 294.665 125.296 266.184L178.108 266.184H246.781V242.374H178.108L112.921 242.374H101.017L101.017 254.279C101.017 292.166 113.329 328.934 135.909 357.714C154.873 381.885 180.063 399.102 208.112 407.024V382.059Z" fill="#D35230"/>
<path fill-rule="evenodd" clip-rule="evenodd" d="M468.562 202.912C473.351 253.462 457.186 303.664 423.548 343.592C390.558 382.751 343.156 409.219 290.538 418.286V394.086C336.3 385.289 377.002 361.887 405.339 328.252C435.023 293.017 449.021 249.097 444.858 205.158C440.694 161.204 418.617 120.026 382.621 89.8671C349.51 62.1266 306.882 45.6265 261.971 43.1388V275.263H238.161V30.9048V19H250.066C304.654 19 357.418 37.6903 397.911 71.6164C438.432 105.565 463.774 152.375 468.562 202.912Z" fill="#D35230"/>
<path fill-rule="evenodd" clip-rule="evenodd" d="M291.926 126.072C312.332 133.25 330.889 146.621 345.397 165.113C362.201 186.532 372.489 213.466 374.742 241.947L321.93 241.947H253.257V265.757H321.93L387.117 265.757H399.021L399.021 253.852C399.021 215.965 386.709 179.197 364.129 150.417C345.165 126.246 319.975 109.029 291.926 101.107V126.072Z" fill="#D35230"/>
</svg>
